<?xml version="1.0" standalone="no"?>
<!DOCTYPE svg PUBLIC "-//W3C//DTD SVG 20010904//EN"
 "http://www.w3.org/TR/2001/REC-SVG-20010904/DTD/svg10.dtd">
<svg version="1.0" xmlns="http://www.w3.org/2000/svg"
 width="1280.000000pt" height="640.000000pt" viewBox="0 0 1280.000000 640.000000"
 preserveAspectRatio="xMidYMid meet">
<metadata>
Created by potrace 1.15, written by Peter Selinger 2001-2017
</metadata>
<g transform="translate(0.000000,640.000000) scale(0.100000,-0.100000)"
fill="#ff9800" stroke="none">
<path d="M2902 5802 c-75 -27 -155 -85 -225 -164 l-60 -67 -26 18 c-42 30
-142 77 -196 92 -27 8 -84 14 -125 14 -93 -1 -168 -32 -235 -99 -25 -25 -51
-46 -58 -46 -34 -1 -158 -56 -222 -99 -28 -20 -31 -20 -43 -3 -7 9 -42 47 -78
84 -78 78 -175 133 -254 144 -38 5 -66 17 -98 40 -95 73 -238 83 -355 26 -66
-33 -170 -126 -214 -194 l-25 -36 -50 29 c-59 35 -172 74 -241 84 -65 10 -155
-10 -220 -49 -107 -64 -174 -202 -165 -339 10 -131 65 -242 175 -355 35 -36
62 -66 61 -67 -2 -1 -23 -13 -47 -25 -65 -32 -137 -105 -168 -169 -24 -48 -28
-68 -28 -141 0 -123 35 -194 156 -313 l90 -89 -22 -34 c-67 -108 -101 -219
-98 -313 2 -58 -2 -72 -25 -108 -96 -145 -64 -328 90 -509 l43 -51 -25 -24
c-45 -42 -116 -158 -141 -232 -46 -130 -20 -247 77 -352 26 -27 54 -70 63 -95
9 -25 32 -69 50 -99 l32 -54 -91 -91 c-120 -119 -156 -190 -156 -307 0 -72 3
-88 35 -152 35 -71 35 -72 17 -92 -10 -11 -30 -42 -43 -70 -100 -200 -32 -422
154 -504 72 -32 168 -43 262 -31 45 6 90 12 101 13 14 2 23 -11 37 -50 48
-142 146 -266 244 -312 62 -29 188 -34 246 -9 34 15 40 14 95 -4 84 -29 173
-21 262 22 50 24 89 56 154 121 l87 89 59 -35 c60 -35 195 -85 230 -85 10 0
46 -14 79 -31 142 -73 305 -38 472 101 l57 47 54 -49 c30 -27 92 -67 137 -89
139 -68 259 -64 371 12 29 19 56 29 81 29 63 0 202 52 273 102 l27 19 88 -89
c61 -62 108 -100 153 -123 60 -32 72 -34 160 -34 115 0 166 21 245 101 37 38
68 58 109 73 72 25 127 57 200 116 67 55 72 54 119 -43 37 -77 98 -141 164
-173 75 -37 197 -39 287 -5 75 29 120 53 179 99 l38 30 30 -36 c40 -48 142
-124 209 -155 45 -21 71 -26 145 -26 81 -1 96 2 150 29 l60 31 50 -19 c73 -27
182 -21 255 15 84 42 200 146 238 215 7 12 22 7 83 -26 41 -21 94 -45 119 -52
25 -7 64 -30 88 -51 63 -57 121 -79 212 -79 116 0 212 40 328 138 l52 45 41
-37 c106 -95 217 -146 325 -146 102 -1 161 20 227 80 20 19 48 29 100 38 50 8
102 27 170 61 l98 50 82 -83 c90 -90 164 -135 257 -154 69 -14 132 -3 220 38
36 17 77 31 91 31 40 0 175 72 246 131 l62 51 58 -45 c76 -58 136 -92 203
-113 30 -9 66 -27 80 -39 59 -53 109 -70 210 -70 91 0 98 2 168 39 52 28 94
62 150 120 l77 82 55 -33 c97 -58 186 -87 270 -86 286 0 371 16 503 95 l69 40
15 -24 c9 -12 44 -51 79 -85 114 -111 260 -163 369 -133 44 12 47 11 108 -21
58 -32 68 -34 157 -34 86 0 100 3 148 30 30 16 78 55 107 87 48 52 123 179
137 235 6 21 7 21 59 7 85 -23 252 -20 318 5 106 40 171 105 206 206 36 102
15 261 -44 344 l-22 30 34 44 c49 64 71 144 64 228 -9 102 -57 188 -163 288
l-84 79 44 84 c44 82 76 181 76 233 0 15 16 52 35 83 46 75 61 150 46 234 -14
83 -68 190 -131 261 l-52 57 52 58 c93 104 150 257 135 361 -13 89 -61 169
-138 228 -16 12 -36 44 -47 72 -10 28 -35 81 -55 117 l-37 66 24 15 c56 38
158 155 190 220 30 61 33 76 33 153 0 76 -4 93 -33 152 -18 36 -49 80 -68 98
l-36 31 61 64 c38 40 74 89 94 132 30 63 32 75 32 173 0 95 -3 110 -27 157
-51 96 -131 156 -247 183 -52 12 -212 9 -272 -6 -24 -5 -28 -3 -34 28 -4 18
-24 70 -46 116 -96 208 -284 301 -462 228 -31 -13 -70 -32 -85 -42 -21 -14
-44 -17 -112 -15 -80 2 -90 0 -160 -34 -59 -29 -93 -55 -161 -125 l-87 -88
-37 25 c-21 14 -62 35 -91 47 -49 20 -56 28 -84 83 -73 147 -218 222 -370 193
-75 -14 -187 -72 -254 -132 l-56 -50 -56 50 c-106 95 -253 150 -358 136 -89
-12 -180 -64 -223 -127 -18 -26 -35 -36 -75 -46 -63 -16 -166 -61 -209 -92
l-31 -22 -31 39 c-82 102 -193 184 -278 204 -74 18 -174 8 -234 -23 -28 -14
-71 -47 -97 -75 -34 -36 -60 -54 -100 -66 -68 -22 -127 -56 -206 -119 -73 -58
-76 -57 -120 37 -39 84 -91 139 -164 176 -53 26 -72 30 -144 30 -61 0 -99 -6
-141 -21 -57 -22 -147 -72 -193 -108 l-24 -19 -74 69 c-178 166 -367 194 -521
78 l-53 -40 -54 11 c-133 28 -275 -43 -411 -204 l-41 -49 -76 39 c-57 29 -78
45 -83 64 -22 93 -100 187 -189 231 -141 70 -305 33 -469 -106 l-50 -42 -60
49 c-116 95 -256 146 -360 132 -61 -8 -138 -45 -185 -88 -25 -24 -52 -37 -95
-45 -59 -13 -201 -74 -239 -103 -18 -14 -25 -9 -105 72 -112 113 -189 153
-304 159 -74 3 -83 1 -152 -33 -83 -41 -131 -90 -173 -177 -22 -46 -36 -60
-79 -83 -28 -15 -78 -51 -110 -81 l-58 -52 -41 36 c-23 20 -68 52 -102 71 -49
28 -62 42 -71 72 -15 50 -84 150 -124 180 -96 74 -221 97 -325 60z m2218 -948
c0 -2 -39 -4 -87 -4 l-88 1 44 39 43 40 44 -36 c24 -20 44 -38 44 -40z m1890
-2 c-29 -2 -54 -1 -57 2 -3 3 5 19 17 36 l22 32 35 -34 34 -33 -51 -3z m2790
28 l35 -29 -69 -1 -70 0 29 30 c16 17 31 30 34 30 3 0 22 -14 41 -30z m-8840
-286 c0 -22 -2 -25 -15 -14 -12 10 -13 16 -4 26 16 20 19 18 19 -12z m-2
-1055 l-3 -41 -33 41 -34 42 34 37 33 37 3 -37 c2 -21 2 -57 0 -79z m10861
-30 c-14 -27 -19 -24 -19 12 0 27 2 30 15 19 11 -9 12 -17 4 -31z m29 -815
c18 -23 32 -45 32 -48 0 -5 -61 -89 -76 -105 -2 -2 -4 45 -4 104 0 60 4 105 8
100 5 -6 23 -29 40 -51z m-9698 -1156 c0 -4 -7 -8 -15 -8 -8 0 -15 4 -15 8 0
5 7 9 15 9 8 0 15 -4 15 -9z m933 -10 c-12 -14 -19 -15 -30 -7 -20 17 -16 24
16 24 28 0 28 -1 14 -17z m2827 12 c-1 -3 -21 -27 -45 -54 l-44 -50 -53 50
c-29 27 -54 51 -55 54 -2 3 42 5 97 5 55 0 100 -2 100 -5z m1860 0 c0 -5 -4
-10 -10 -10 -5 0 -10 5 -10 10 0 6 5 10 10 10 6 0 10 -4 10 -10z"/>
</g>
</svg>
